<svg xmlns="http://www.w3.org/2000/svg" viewBox="65 65 395 315" fill="none">
  <!-- M Azul (cópia do M, invertida de ponta cabeça, no lugar do W) -->
  <path id="splashPathW" fill="#013894" transform="translate(110.92,161.80) matrix(1,0,0,-1,0,273.92)" d="M131.702728,71.164474 C149.320740,66.748489 166.410675,67.055771 182.537689,75.183899 C189.582092,78.734337 196.003876,83.640221 202.365417,88.389938 C208.133484,92.696548 209.808273,93.040634 215.283630,88.246346 C230.212997,75.174133 247.078888,66.796585 267.383240,68.262421 C275.075470,68.817741 282.627747,71.311226 290.621918,72.925613 C296.710297,75.973198 302.728333,78.557434 308.075409,82.142456 C327.056458,94.868553 337.174805,113.348778 338.700073,135.669037 C340.149536,156.879303 339.578003,178.233337 339.691406,199.525223 C339.719330,204.765976 337.202301,206.883270 331.762970,206.987732 C325.607086,207.105972 319.446289,207.106232 313.289673,207.016785 C304.939148,206.895493 303.304871,205.331131 303.255737,197.049362 C303.166870,182.070831 303.338196,167.090286 303.179993,152.112900 C303.118713,146.309372 303.193298,140.345840 301.926910,134.744354 C298.584595,119.960258 289.561462,110.022163 274.387756,105.779526 C263.455109,103.878517 253.456039,105.125832 244.397385,111.201134 C233.427673,118.558113 227.268097,128.627457 227.313934,142.125031 C227.372726,159.438858 227.315140,176.753250 227.424271,194.066666 C227.490280,204.539825 225.060349,207.111755 214.589401,207.049500 C209.595184,207.019806 204.598099,207.040802 199.607880,206.873108 C192.665771,206.639847 191.076523,205.110306 191.038712,198.166138 C190.945343,181.018646 191.041687,163.870163 190.984238,146.722351 C190.952911,137.367752 188.784378,128.566345 183.523880,120.706314 C169.035538,99.058273 136.797455,98.939362 121.984703,120.466545 C116.626091,128.254150 114.177391,136.988831 114.102242,146.348145 C113.981941,161.329727 113.949150,176.314255 114.104973,191.295181 C114.257805,205.989380 113.350342,207.061737 98.456322,207.172424 C93.520119,207.091415 89.029640,206.972992 84.544647,206.746292 C80.964630,206.565338 78.108513,204.946671 78.164841,201.112915 C78.506927,177.828354 77.023376,154.279388 80.041878,131.330688 C83.988495,101.325752 102.443901,81.230919 131.702728,71.164474 z"/>
  <!-- M Grafite -->
  <path id="splashPathM" fill="#3D3D3D" d="M131.702728,71.164474 C149.320740,66.748489 166.410675,67.055771 182.537689,75.183899 C189.582092,78.734337 196.003876,83.640221 202.365417,88.389938 C208.133484,92.696548 209.808273,93.040634 215.283630,88.246346 C230.212997,75.174133 247.078888,66.796585 267.383240,68.262421 C275.075470,68.817741 282.627747,71.311226 290.621918,72.925613 C296.710297,75.973198 302.728333,78.557434 308.075409,82.142456 C327.056458,94.868553 337.174805,113.348778 338.700073,135.669037 C340.149536,156.879303 339.578003,178.233337 339.691406,199.525223 C339.719330,204.765976 337.202301,206.883270 331.762970,206.987732 C325.607086,207.105972 319.446289,207.106232 313.289673,207.016785 C304.939148,206.895493 303.304871,205.331131 303.255737,197.049362 C303.166870,182.070831 303.338196,167.090286 303.179993,152.112900 C303.118713,146.309372 303.193298,140.345840 301.926910,134.744354 C298.584595,119.960258 289.561462,110.022163 274.387756,105.779526 C263.455109,103.878517 253.456039,105.125832 244.397385,111.201134 C233.427673,118.558113 227.268097,128.627457 227.313934,142.125031 C227.372726,159.438858 227.315140,176.753250 227.424271,194.066666 C227.490280,204.539825 225.060349,207.111755 214.589401,207.049500 C209.595184,207.019806 204.598099,207.040802 199.607880,206.873108 C192.665771,206.639847 191.076523,205.110306 191.038712,198.166138 C190.945343,181.018646 191.041687,163.870163 190.984238,146.722351 C190.952911,137.367752 188.784378,128.566345 183.523880,120.706314 C169.035538,99.058273 136.797455,98.939362 121.984703,120.466545 C116.626091,128.254150 114.177391,136.988831 114.102242,146.348145 C113.981941,161.329727 113.949150,176.314255 114.104973,191.295181 C114.257805,205.989380 113.350342,207.061737 98.456322,207.172424 C93.520119,207.091415 89.029640,206.972992 84.544647,206.746292 C80.964630,206.565338 78.108513,204.946671 78.164841,201.112915 C78.506927,177.828354 77.023376,154.279388 80.041878,131.330688 C83.988495,101.325752 102.443901,81.230919 131.702728,71.164474 z"/>
  <!-- Triângulo Azul -->
  <path id="splashTriangle" fill="#013894" d="M444.312866,191.627960 C447.180664,196.680954 449.861298,201.418457 452.886841,206.765442 C439.280396,206.765442 426.323212,206.765442 412.695038,206.765442 C419.335083,195.100494 425.857971,183.641434 432.761932,171.512833 C436.745026,178.452728 440.435394,184.882599 444.312866,191.627960 z"/>
  <!-- Ponto Grafite (arredondado, sem ponta) -->
  <ellipse id="splashDot" fill="#3D3D3D" cx="95.3" cy="243" rx="19" ry="18"/>
</svg>
